<?xml version="1.0" encoding="utf-8"?>
<!-- Generator: Adobe Illustrator 22.0.0, SVG Export Plug-In . SVG Version: 6.00 Build 0)  -->
<svg version="1.1" id="Capa_1" xmlns="http://www.w3.org/2000/svg" xmlns:xlink="http://www.w3.org/1999/xlink" x="0px" y="0px"
	 viewBox="0 0 512 512" style="enable-background:new 0 0 512 512;" xml:space="preserve">
<style type="text/css">
	.st0{fill:#D3D3D3;}
	.st1{fill:#D4145A;}
</style>
<g>
	<path class="st0" d="M51.3,359.1c5.8,4.1,13.5,7.7,23,10.8c9.5,3,20.5,4.6,33,4.6c14.4,0,26-2.4,34.8-7.2
		c8.8-4.8,15.6-12,20.3-21.8c4.7-9.7,7.9-21.8,9.5-36.4c1.7-14.5,2.5-31.5,2.5-50.9v-154h29v148.4c0,21.9-1.1,41.9-3.3,60
		s-6.5,33.7-12.9,46.9c-6.4,13.2-15.9,23.3-28.6,30.4c-12.7,7.1-29.6,10.7-50.6,10.7c-13.5,0-25.6-1.5-36.1-4.6
		c-10.5-3-20.2-7.6-29-13.7L51.3,359.1z"/>
</g>
<g>
	<path class="st1" d="M343,400.3c-19.6,0-37.9-4.2-54.7-12.6c-16.9-8.4-31.5-19.8-44-34.2c-12.4-14.4-22-30.4-28.8-48.1
		s-10.2-35.9-10.2-54.7c0-19.9,3.4-38.8,10.2-56.6s16.2-33.6,28.4-47.5c12.2-13.8,26.5-24.7,43.1-32.8c16.6-8,34.7-12,54.3-12
		c29,0,52.7,5.9,70.9,17.8c18.2,11.9,32.1,27.4,41.5,46.4l-22.4,14.9c-9.4-18.2-22-31.6-37.7-40.2c-15.8-8.6-33.3-12.9-52.7-12.9
		c-16.3,0-31,3.5-44.2,10.4c-13.1,6.9-24.4,16.2-33.8,27.8s-16.5,24.7-21.4,39.4c-4.8,14.7-7.3,29.9-7.3,45.6
		c0,16.6,2.8,32.3,8.3,47.1c5.5,14.8,13.4,27.9,23.6,39.4s22,20.5,35.4,27s27.8,9.7,43.3,9.7c18,0,35-4.5,51-13.5s31.4-22.9,46-41.7
		v30.7C414.2,383.4,381.2,400.3,343,400.3z M437.5,275.9H372v-22.4h90v144.7h-24.5V275.9z"/>
</g>
</svg>
